<svg xmlns="http://www.w3.org/2000/svg" width="1050" height="430" viewBox="0 0 1050 430"><rect width="1050" height="430" fill="white"/><g font-family="Arial,Microsoft YaHei,sans-serif"><path d="M65 350.0H1030" stroke="#ddd"/><text x="25" y="355.0" font-size="14">0</text><path d="M65 296.0H1030" stroke="#ddd"/><text x="25" y="301.0" font-size="14">20</text><path d="M65 242.0H1030" stroke="#ddd"/><text x="25" y="247.0" font-size="14">40</text><path d="M65 188.0H1030" stroke="#ddd"/><text x="25" y="193.0" font-size="14">60</text><path d="M65 134.0H1030" stroke="#ddd"/><text x="25" y="139.0" font-size="14">80</text><path d="M65 80.0H1030" stroke="#ddd"/><text x="25" y="85.0" font-size="14">100</text><rect x="160" y="145.74499999999998" width="65" height="204.25500000000002" fill="#de7588"/><text x="192" y="133.74499999999998" text-anchor="middle" font-size="19">75.65</text><rect x="245" y="153.305" width="65" height="196.695" fill="#7b75bd"/><text x="277" y="141.305" text-anchor="middle" font-size="19">72.85</text><text x="235" y="385" text-anchor="middle" font-size="17">RGB/SAR</text><rect x="475" y="162.9800045490265" width="65" height="187.0199954509735" fill="#de7588"/><text x="507" y="150.9800045490265" text-anchor="middle" font-size="19">69.27</text><rect x="560" y="194.8399966955185" width="65" height="155.1600033044815" fill="#7b75bd"/><text x="592" y="182.8399966955185" text-anchor="middle" font-size="19">57.47</text><text x="550" y="385" text-anchor="middle" font-size="17">CLEVR 图文</text><rect x="790" y="120.48443138599393" width="65" height="229.51556861400607" fill="#de7588"/><text x="822" y="108.48443138599393" text-anchor="middle" font-size="19">85.01</text><rect x="875" y="152.2491353750229" width="65" height="197.7508646249771" fill="#7b75bd"/><text x="907" y="140.2491353750229" text-anchor="middle" font-size="19">73.24</text><text x="865" y="385" text-anchor="middle" font-size="17">Speech Commands 音文</text><text x="65" y="30" font-size="20">测试准确率 (%) · 单种子</text><text x="640" y="30" fill="#de7588" font-size="19">■ MoE系列</text><text x="820" y="30" fill="#7b75bd" font-size="19">■ D2NN系列</text></g></svg>